<svg xmlns="http://www.w3.org/2000/svg" viewBox="0 0 362.5 154.8"><path d="M34.4 112.9c-15.6 0-22.7 4.3-25.5 13.3L0 154.8h303.2c15.6 0 22.7-4.3 25.5-13.3l8.9-28.6H34.4zM70.9 73h-15c-23.4 0-6.4-49.7 13.3-49.7h23.7c3.8 0 10.5.7 13.8-8.7L111.8 0H79.3C61.7 0 48 6.2 38.1 16.6 21 34.4 15.2 62.2 19.3 75.5c3.9 12.3 14.5 20.4 31.1 20.6l12.9.1h15.9l3.9-11.7C86 76.2 79.5 73 70.9 73zm182.6-20.6l4.9-15.9h-52.3c-8.7 0-12.6 2.4-14.1 7.4l-4.9 15.9h52.3c8.7 0 12.6-2.4 14.1-7.4zm-74.2 28l-4.9 15.9h52.3c8.6 0 12.6-2.4 14.1-7.4l4.9-15.9h-52.3c-8.6 0-12.5 2.4-14.1 7.4zM265.7 16L270.6.1h-52.3c-8.7 0-12.6 2.4-14.1 7.4l-4.9 15.9h52.3c8.6 0 12.5-2.4 14.1-7.4zm-79 3.2C184.5 4.4 176.6.1 157.4.1h-35L102 59.8h12.9c7.7 0 11.6.1 15.7-10.9l8.5-25.6h13c11.1 0 8.6 13.9 3 27.4-5 11.9-13.7 22.4-24.2 22.4h-21.7c-8.7 0-12.7 2.4-14.3 7.4l-5.4 15.9h15.9l15.6-.1c13.8-.1 25.1-1.1 38.3-13 14-12.7 30.2-45.3 27.4-64.1zM362.5 0h-30.3l-28.5 30.3c-3.3 3.5-6.7 7-10 11.1h-.3L307.6 0h-24.7l-33.3 96.3h24.7L284.9 66l11-9.3 8.7 27.4c2.7 8.5 5.5 12.2 11.5 12.2H335l-19.4-53.8L362.5 0z" fill-rule="evenodd" clip-rule="evenodd" fill="#00b33c"/></svg>