<svg xmlns="http://www.w3.org/2000/svg" viewBox="0 0 444.9 194.8"><path d="M288.8 143.3c-8.4 2.2-19.3 3.3-28.8 3.3-24.4 0-40.6-13-40.6-36.8 0-22.5 15.1-37.1 37.1-37.1 4.9 0 10.1.6 13.3 2.2V42.3h19v101zm-19-51.6c-3-1.4-7-2.2-11.7-2.2-11.6 0-19.3 7.1-19.3 19.7 0 13.5 8.4 21.1 21.9 21.1 2.4 0 6-.2 9.2-.8V91.7zm175.1 51.6c-8.4 2.2-19.3 3.3-28.9 3.3-24.4 0-40.6-13-40.6-36.8 0-22.5 15.1-37.1 37.1-37.1 4.9 0 10.1.6 13.3 2.2V42.3h19l.1 101zm-19.1-51.6c-3-1.4-7-2.2-11.7-2.2-11.6 0-19.3 7.1-19.3 19.7 0 13.5 8.4 21.1 21.9 21.1 2.4 0 6-.2 9.2-.8V91.7zm-107.1-.1c3.2-1.3 7.6-1.7 11.4-1.7 11.7 0 19.8 6.8 19.8 19 0 14.4-9 20.9-20.9 21.1v16.6h1c24.6 0 39.3-13.8 39.3-38.4 0-22.4-15.7-35.5-38.8-35.5-11.7 0-23.3 2.7-30.9 5.9v95h19.2l-.1-82z" fill="#414042"/><path d="M116.1 86.9c-.8.5-2 .4-2.8-.1l-4.5-2.7c-.4-.2-.7-.6-1-1V83c-.3-.5-.5-1-.5-1.4l-.1-5.3c0-.9.6-2 1.3-2.4l54.4-31.7L86.6.7c-.8-.5-1.9-.7-3-.7s-2.2.2-3.1.7L4.2 42.3 89.7 92c.8.4 1.4 1.5 1.4 2.4V167c0 .9-.7 2-1.4 2.4l-4.6 2.6c-.4.2-.9.3-1.4.3h-.1c-.6 0-1.1-.1-1.5-.3l-4.6-2.6c-.8-.4-1.4-1.5-1.4-2.4v-64.7c0-.5-.4-1.1-.8-1.3L0 57.2V143c0 1.9 1.4 4.3 3 5.3L80.6 194c.8.5 1.9.7 3 .7s2.2-.2 3-.7l77.6-45.7c1.7-1 3-3.3 3-5.3V57.2l-51.1 29.7z" fill="#dc0032"/></svg>