<svg width="280" height="129" fill="none" xmlns="http://www.w3.org/2000/svg" class="history-logo"><path fill-rule="evenodd" clip-rule="evenodd" d="M180.596 99.71h14.113V67.288c18.101 0 15.341 3.124 15.341 32.42h14.112c0-9.39 1.192-26.67-1.578-33.294-1.092-2.613-2.116-3.566-3.331-5.855.095-.11.246-.421.287-.326.07.166 1.968-2.14 2.869-4.48 2.898-7.528 1.753-12.221 1.753-22.72 0-6.754-3.887-12.917-8.788-15.707-3.629-2.066-5.15-3.257-11.46-3.257h-23.317v85.64h-.001zm20.863-45.267h-6.75V26.916c14.534 0 15.341.794 15.341 17.128 0 6.024-2.561 10.399-8.591 10.399zM.196 34.865c0 6.93.577 9.21 3.674 15.3C9.472 61.176 18.012 61.6 24.265 65.925c1.807 1.248.996.381 2.216 2.073 3.877 5.379 4.733 19.475-4.195 19.475-9.327 0-7.363-9.523-7.363-18.353-17.755 0-14.727-2.654-14.727 10.4 0 10.872 9.343 20.187 20.25 20.187 9.161 0 15.8-2.516 20.252-9.785 3.67-5.994 3.713-17.01 1.238-22.65-9.078-20.695-27.013-15.547-27.013-27.514v-6.117c0-10.312 14.112-10.312 14.112 0v10.4h14.727c0-12.125-.006-22.293-11.248-27.936-7.15-3.59-19.172-3.215-26.335 3.926C2.22 23.977.196 28.466.196 34.865zM56.033 15.903c0 12.322-.953 77.095.614 83.804h14.114v-32.42c10.19 0 16.836 1.399 24.093-5.955 6.981-7.074 5.359-16.247 5.359-27.69 0-11.177-8.423-19.576-19.636-19.576H57.874c-1.413.002-1.84.426-1.84 1.837zM77.51 54.44h-6.75V26.913c17.293 0 14.728 1.385 14.728 21.41-.002 3.973-3.942 6.118-7.978 6.118z" fill="#191919"/><path fill-rule="evenodd" clip-rule="evenodd" d="M104.509 99.71h14.114c.334-4.002 1.461-7.738 1.852-12.224L132.736 0h-15.955l-13.357 94.96c-.498 2.714-1.454 4.75 1.085 4.75z" fill="#B4DC14"/><path fill-rule="evenodd" clip-rule="evenodd" d="M153.598 99.71h15.954L155.44 0h-15.956l8.84 62.146c.76 4.225.986 8.249 1.653 12.423l3.621 25.14z" fill="#FFF000"/><path fill-rule="evenodd" clip-rule="evenodd" d="M251.16 53.218c2.175 4.098 6.214 20.082 8.231 26.048.496 1.468.537 1.121.981 2.693l5.514 17.748h14.112c-.234-2.803-14.112-45.82-14.112-47.103 0-1.556 5.988-15.68 6.992-19.333.609-2.22 1.005-2.49 1.8-4.322l5.321-14.883h-14.112l-7.439 19.5c-1.99 6.074-5.869 13.582-7.288 19.651zM235.209 99.711h12.272c1.414 0 1.84-.426 1.84-1.835V14.07h-14.112v85.641z" fill="#191919"/><path d="M90.728 112.059h2.123v13.857h7.638v1.78h-9.76v-15.637zM108.315 111.773c2.199 0 3.955.737 5.272 2.206 1.317 1.471 1.976 3.441 1.976 5.912 0 2.466-.659 4.434-1.976 5.904-1.317 1.469-3.073 2.203-5.272 2.203-2.207 0-3.971-.734-5.291-2.199-1.32-1.466-1.979-3.436-1.979-5.908 0-2.471.659-4.441 1.979-5.912 1.322-1.471 3.084-2.206 5.291-2.206zm0 1.718c-1.543 0-2.767.573-3.675 1.719-.906 1.144-1.36 2.705-1.36 4.681 0 1.97.454 3.528 1.36 4.673.908 1.144 2.132 1.716 3.675 1.716 1.539 0 2.76-.572 3.659-1.716.902-1.145 1.352-2.703 1.352-4.673 0-1.976-.45-3.536-1.352-4.681-.899-1.146-2.118-1.719-3.659-1.719zM129.577 125.463v-4.197h-3.467v-1.74h5.567v6.715a9.343 9.343 0 01-2.712 1.314c-.987.297-2.041.444-3.161.444-2.451 0-4.369-.713-5.752-2.142-1.382-1.427-2.073-3.417-2.073-5.966 0-2.554.691-4.546 2.073-5.974 1.383-1.429 3.301-2.144 5.752-2.144 1.024 0 1.996.127 2.916.378a9.452 9.452 0 012.548 1.11v2.253a8.62 8.62 0 00-2.501-1.497 7.758 7.758 0 00-2.785-.503c-1.918 0-3.358.534-4.323 1.602-.963 1.068-1.445 2.659-1.445 4.775 0 2.11.482 3.698 1.445 4.766.963 1.068 2.404 1.602 4.323 1.602.749 0 1.419-.064 2.008-.193a5.362 5.362 0 001.587-.603zM137.691 112.059h-2.123v15.638h2.123v-15.638zM151.316 112.571v2.063a13.198 13.198 0 00-2.28-.858 8.12 8.12 0 00-2.069-.283c-1.156 0-2.048.224-2.676.671-.625.447-.939 1.083-.939 1.906 0 .691.207 1.214.624 1.567.418.352 1.207.636 2.369.854l1.284.261c1.581.302 2.748.831 3.502 1.589.754.757 1.131 1.772 1.131 3.042 0 1.515-.51 2.664-1.529 3.447-1.02.782-2.514 1.172-4.482 1.172-.743 0-1.532-.084-2.37-.253a17.509 17.509 0 01-2.599-.744v-2.177c.861.482 1.705.845 2.532 1.089a8.55 8.55 0 002.437.367c1.213 0 2.148-.236 2.806-.71.658-.477.987-1.153.987-2.033 0-.768-.238-1.369-.711-1.801-.471-.432-1.246-.758-2.325-.975l-1.293-.253c-1.584-.313-2.728-.806-3.435-1.475-.708-.671-1.06-1.602-1.06-2.796 0-1.383.488-2.472 1.463-3.268.978-.797 2.326-1.196 4.042-1.196.734 0 1.484.067 2.247.2.764.132 1.545.33 2.344.594zM153.396 112.059h13.269v1.783h-5.57v13.854h-2.13v-13.854h-5.569v-1.783zM170.847 112.059h-2.122v15.638h2.122v-15.638zM186.815 113.26v2.232c-.716-.663-1.477-1.161-2.286-1.488a6.784 6.784 0 00-2.578-.493c-1.793 0-3.166.547-4.12 1.64-.952 1.093-1.428 2.672-1.428 4.737 0 2.06.476 3.638 1.428 4.73.954 1.092 2.327 1.638 4.12 1.638.911 0 1.771-.164 2.578-.492.809-.329 1.572-.823 2.286-1.485v2.207a8.652 8.652 0 01-2.358 1.134 9.043 9.043 0 01-2.632.375c-2.375 0-4.245-.724-5.611-2.172-1.366-1.45-2.048-3.429-2.048-5.936 0-2.513.682-4.494 2.048-5.942 1.366-1.45 3.235-2.175 5.611-2.175.937 0 1.822.124 2.652.372.83.251 1.61.622 2.338 1.118zM199.515 112.571v2.063a13.138 13.138 0 00-2.28-.858 8.115 8.115 0 00-2.069-.283c-1.155 0-2.048.224-2.675.671-.627.447-.94 1.083-.94 1.906 0 .691.208 1.214.624 1.567.419.352 1.207.636 2.37.854l1.284.261c1.58.302 2.748.831 3.502 1.589.753.757 1.13 1.772 1.13 3.042 0 1.515-.509 2.664-1.529 3.447-1.019.782-2.513 1.172-4.483 1.172-.743 0-1.532-.084-2.37-.253a17.464 17.464 0 01-2.598-.744v-2.177c.86.482 1.706.845 2.531 1.089a8.544 8.544 0 002.437.367c1.213 0 2.149-.236 2.806-.71.658-.477.988-1.153.988-2.033 0-.768-.238-1.369-.711-1.801-.472-.432-1.247-.758-2.326-.975l-1.293-.253c-1.583-.313-2.728-.806-3.434-1.475-.709-.671-1.061-1.602-1.061-2.796 0-1.383.487-2.472 1.463-3.268.979-.797 2.326-1.196 4.043-1.196.734 0 1.483.067 2.246.2.766.132 1.547.33 2.345.594z" fill="#1B1918"/></svg>